# xmcd
#
# Track frame offsets: 
#        150
#        19263
#        38366
#        56813
#        75358
#        96045
#        118131
#        139450
#        160488
#        181489
#
# Disc length: 2675 seconds
#
# Revision: 0
# Processed by: cddbd v1.5.2PL0 Copyright (c) Steve Scherf et al.
# Submitted via: ExactAudioCopy v1.0b4
#
DISCID=810a710a
DTITLE=Jin Chi - Besotted (2012)
DYEAR=2012
DGENRE=
TTITLE0=Christmas Eve
TTITLE1=Infatuation Does Not Change
TTITLE2=Spiritual Experience
TTITLE3=Care
TTITLE4=Occupied
TTITLE5=Long Long Ago
TTITLE6=Love Of The Disease
TTITLE7=Do Not Love What Will Happen
TTITLE8=Only Left With
TTITLE9=Infatuation
EXTD=
EXTT0=
EXTT1=
EXTT2=
EXTT3=
EXTT4=
EXTT5=
EXTT6=
EXTT7=
EXTT8=
EXTT9=
PLAYORDER=
